<?xml version="1.0" standalone="no"?>
<!DOCTYPE svg PUBLIC "-//W3C//DTD SVG 20010904//EN"
 "http://www.w3.org/TR/2001/REC-SVG-20010904/DTD/svg10.dtd">
<svg version="1.0" xmlns="http://www.w3.org/2000/svg"
 width="512.000000pt" height="512.000000pt" viewBox="0 0 512.000000 512.000000"
 preserveAspectRatio="xMidYMid meet">
<metadata>
Created by potrace 1.14, written by Peter Selinger 2001-2017
</metadata>
<g transform="translate(0.000000,512.000000) scale(0.100000,-0.100000)"
fill="#000000" stroke="none">
<path d="M1655 5058 c3 -35 8 -76 10 -93 3 -16 7 -52 10 -80 5 -47 8 -79 21
-185 3 -25 7 -65 10 -90 2 -25 6 -63 9 -85 11 -93 25 -214 30 -270 3 -33 8
-71 10 -85 3 -14 7 -52 10 -85 4 -33 8 -71 10 -85 2 -14 6 -50 10 -80 3 -30 8
-71 10 -90 2 -19 7 -60 10 -90 3 -30 8 -71 10 -90 2 -19 7 -60 10 -90 6 -54
10 -92 20 -167 2 -21 7 -60 10 -88 9 -79 15 -137 20 -175 3 -19 7 -62 10 -95
3 -33 8 -71 10 -85 2 -14 7 -54 10 -90 3 -36 8 -76 10 -90 4 -25 11 -87 20
-170 6 -55 15 -133 20 -180 11 -86 26 -219 30 -265 8 -76 16 -147 20 -175 2
-14 6 -47 9 -75 3 -27 8 -70 11 -95 3 -25 7 -65 10 -90 3 -25 7 -64 10 -87 9
-75 14 -126 20 -178 3 -27 8 -66 10 -85 3 -19 7 -60 10 -90 3 -30 9 -89 15
-130 5 -41 12 -100 15 -130 3 -30 8 -66 10 -80 2 -14 7 -56 10 -93 4 -37 8
-78 10 -89 3 -12 7 -49 10 -82 3 -34 7 -74 9 -91 2 -16 7 -61 11 -100 3 -38 8
-72 10 -75 1 -3 6 -41 9 -85 4 -44 9 -87 11 -95 2 -8 7 -44 10 -80 3 -36 8
-74 10 -85 2 -11 4 -30 4 -42 l1 -23 324 0 324 0 7 83 c4 45 9 91 11 102 1 11
6 47 9 80 9 84 15 136 20 165 2 14 6 59 10 100 3 41 8 82 10 90 2 8 7 44 10
80 3 36 10 92 15 125 5 33 12 89 15 125 11 113 15 152 30 270 13 109 18 146
30 265 6 53 12 105 20 170 11 89 35 293 40 345 3 30 8 69 10 85 4 26 12 98 20
175 1 14 5 48 9 75 4 28 8 70 11 95 2 25 6 63 9 85 3 22 10 85 16 140 6 55 15
132 20 170 5 39 12 99 15 134 6 64 11 102 20 171 2 19 7 58 10 85 3 28 7 66
10 85 5 41 12 103 20 180 3 30 8 71 10 90 5 38 12 97 20 175 3 28 8 61 10 75
2 14 7 54 10 90 6 62 9 92 20 180 10 79 14 116 20 170 3 30 10 89 15 130 5 41
12 100 15 130 3 30 8 73 11 95 2 22 7 63 10 90 3 28 7 61 9 75 2 14 6 52 10
85 3 33 8 74 10 90 2 17 7 60 10 98 l7 67 -298 -2 -297 -3 -2 -30 c-4 -52 -19
-232 -30 -355 -3 -30 -8 -80 -10 -110 -3 -30 -7 -77 -10 -105 -11 -123 -15
-174 -20 -235 -6 -80 -15 -173 -20 -220 -2 -19 -7 -73 -10 -120 -3 -47 -8
-101 -10 -120 -3 -19 -7 -69 -11 -110 -3 -41 -7 -88 -9 -105 -1 -16 -5 -68 -9
-115 -4 -47 -9 -105 -11 -130 -3 -25 -8 -74 -10 -110 -2 -36 -7 -85 -9 -110
-3 -25 -8 -79 -12 -120 -4 -41 -8 -88 -9 -105 -2 -16 -6 -70 -10 -120 -3 -49
-8 -101 -10 -115 -2 -14 -6 -59 -10 -100 -10 -126 -16 -193 -20 -230 -3 -19
-7 -71 -10 -115 -3 -44 -7 -98 -9 -120 -2 -22 -7 -76 -10 -120 -4 -44 -9 -93
-11 -110 -2 -16 -7 -66 -10 -110 -4 -44 -9 -96 -10 -115 -2 -19 -7 -78 -11
-130 -3 -52 -8 -101 -9 -110 -2 -8 -4 -37 -4 -64 -1 -70 -10 -52 -16 31 -2 39
-7 93 -9 120 -3 26 -8 86 -11 133 -11 148 -15 194 -20 255 -2 33 -7 100 -11
150 -3 49 -7 101 -9 115 -2 14 -6 70 -9 125 -4 55 -9 120 -11 145 -3 25 -7 81
-10 125 -3 44 -8 98 -10 120 -2 22 -7 81 -10 130 -3 50 -8 113 -10 140 -2 28
-7 80 -10 118 -9 111 -14 188 -20 272 -3 44 -8 105 -10 135 -12 137 -15 170
-20 240 -3 41 -8 107 -10 145 -3 39 -7 93 -10 120 -2 28 -7 86 -10 130 -3 44
-7 103 -10 130 -2 28 -7 86 -10 130 -3 44 -8 103 -10 130 -3 28 -7 91 -10 140
-4 50 -8 106 -10 125 -2 19 -7 78 -11 130 -4 52 -8 106 -10 120 -1 14 -2 44
-3 68 l-1 42 -296 0 -295 0 6 -62z"/>
</g>
</svg>
